<svg xmlns="http://www.w3.org/2000/svg" viewBox="0 0 400 400" width="400" height="400">
  <defs>
    <linearGradient id="bg03" x1="0" y1="0" x2="1" y2="1">
      <stop offset="0%" stop-color="#FDFBF7"/><stop offset="100%" stop-color="#F5F0E8"/>
    </linearGradient>
    <linearGradient id="salmon" x1="0.5" y1="0" x2="0.5" y2="1">
      <stop offset="0%" stop-color="#F0A090"/><stop offset="50%" stop-color="#E88878"/><stop offset="100%" stop-color="#D47868"/>
    </linearGradient>
  </defs>
  <rect width="400" height="400" fill="url(#bg03)"/>
  <ellipse cx="200" cy="340" rx="140" ry="18" fill="rgba(0,0,0,0.06)"/>
  <ellipse cx="200" cy="340" rx="90" ry="12" fill="rgba(0,0,0,0.08)"/>
  <g transform="translate(200,225)">
    <rect x="-35" y="-15" width="30" height="25" rx="6" fill="url(#salmon)" transform="rotate(-20)"/>
    <rect x="-15" y="-10" width="28" height="22" rx="5" fill="#E88878" transform="rotate(5)"/>
    <rect x="5" y="-18" width="26" height="28" rx="5" fill="url(#salmon)" transform="rotate(15)"/>
    <rect x="-30" y="5" width="24" height="18" rx="4" fill="#D47868" transform="rotate(-35)"/>
    <rect x="20" y="0" width="22" height="20" rx="4" fill="#E88878" transform="rotate(30)"/>
    <rect x="-5" y="12" width="20" height="16" rx="4" fill="url(#salmon)" transform="rotate(-5)"/>
    <rect x="30" y="-8" width="18" height="20" rx="4" fill="#D47868" transform="rotate(45)"/>
  </g>
  <g opacity="0.1">
    <circle cx="80" cy="80" r="50" fill="#84A98C"/>
    <circle cx="320" cy="320" r="45" fill="#C77D82"/>
  </g>
</svg>
