<svg xmlns="http://www.w3.org/2000/svg" viewBox="0 0 400 400" width="400" height="400">
  <defs>
    <linearGradient id="bg07" x1="0" y1="0" x2="1" y2="1">
      <stop offset="0%" stop-color="#FDFBF7"/><stop offset="100%" stop-color="#F5F0E8"/>
    </linearGradient>
    <linearGradient id="biscuit" x1="0.5" y1="0" x2="0.5" y2="1">
      <stop offset="0%" stop-color="#F0D8B0"/><stop offset="50%" stop-color="#E8C898"/><stop offset="100%" stop-color="#D8B888"/>
    </linearGradient>
  </defs>
  <rect width="400" height="400" fill="url(#bg07)"/>
  <ellipse cx="200" cy="340" rx="140" ry="18" fill="rgba(0,0,0,0.06)"/>
  <ellipse cx="200" cy="340" rx="90" ry="12" fill="rgba(0,0,0,0.08)"/>
  <g transform="translate(200,220)">
    <ellipse cx="-30" cy="-5" rx="24" ry="20" fill="url(#biscuit)" transform="rotate(-15)"/>
    <ellipse cx="10" cy="-10" rx="22" ry="18" fill="#E8C898" transform="rotate(8)"/>
    <ellipse cx="-15" cy="15" rx="26" ry="20" fill="url(#biscuit)" transform="rotate(-5)"/>
    <ellipse cx="30" cy="8" rx="20" ry="16" fill="#F0D8B0" transform="rotate(20)"/>
    <ellipse cx="-45" cy="5" rx="18" ry="14" fill="#D8B888" transform="rotate(-25)"/>
    <ellipse cx="5" cy="-20" rx="16" ry="14" fill="#E8C898" transform="rotate(10)"/>
    <ellipse cx="45" cy="-5" rx="15" ry="12" fill="#F0D8B0" transform="rotate(35)"/>
    <ellipse cx="-25" cy="-18" rx="14" ry="12" fill="#D8B888" transform="rotate(-20)"/>
  </g>
  <g opacity="0.1">
    <circle cx="80" cy="80" r="50" fill="#C77D82"/>
    <circle cx="320" cy="320" r="45" fill="#84A98C"/>
  </g>
</svg>
