<svg xmlns="http://www.w3.org/2000/svg" viewBox="0 0 400 400" width="400" height="400">
  <defs>
    <linearGradient id="bg01" x1="0" y1="0" x2="1" y2="1">
      <stop offset="0%" stop-color="#FDFBF7"/>
      <stop offset="100%" stop-color="#F5F0E8"/>
    </linearGradient>
    <linearGradient id="chicken" x1="0.5" y1="0" x2="0.5" y2="1">
      <stop offset="0%" stop-color="#E8D5B7"/>
      <stop offset="60%" stop-color="#D4B896"/>
      <stop offset="100%" stop-color="#C4A480"/>
    </linearGradient>
    <radialGradient id="shadow01" cx="0.5" cy="0.5" r="0.5">
      <stop offset="0%" stop-color="rgba(0,0,0,0.06)"/>
      <stop offset="100%" stop-color="rgba(0,0,0,0)"/>
    </radialGradient>
  </defs>
  <rect width="400" height="400" fill="url(#bg01)"/>
  <ellipse cx="200" cy="340" rx="140" ry="18" fill="rgba(0,0,0,0.06)"/>
  <ellipse cx="200" cy="340" rx="90" ry="12" fill="rgba(0,0,0,0.08)"/>
  <g transform="translate(200,230)">
    <ellipse cx="-30" cy="0" rx="35" ry="22" fill="url(#chicken)" transform="rotate(-15)"/>
    <ellipse cx="15" cy="-8" rx="30" ry="20" fill="url(#chicken)" transform="rotate(10)"/>
    <ellipse cx="-10" cy="-25" rx="28" ry="18" fill="#E0C8A8" transform="rotate(-5)"/>
    <ellipse cx="35" cy="10" rx="25" ry="16" fill="#D4B896" transform="rotate(25)"/>
    <ellipse cx="-45" cy="12" rx="22" ry="14" fill="#C8B090" transform="rotate(-30)"/>
    <ellipse cx="5" cy="15" rx="20" ry="12" fill="#E0C8A8" transform="rotate(8)"/>
  </g>
  <g opacity="0.12">
    <circle cx="80" cy="80" r="60" fill="#84A98C"/>
    <circle cx="320" cy="320" r="40" fill="#C77D82"/>
  </g>
</svg>
