<svg xmlns="http://www.w3.org/2000/svg" viewBox="0 0 400 400" width="400" height="400">
  <defs>
    <linearGradient id="bg05" x1="0" y1="0" x2="1" y2="1">
      <stop offset="0%" stop-color="#FDFBF7"/><stop offset="100%" stop-color="#F5F0E8"/>
    </linearGradient>
    <linearGradient id="mint" x1="0.5" y1="0" x2="0.5" y2="1">
      <stop offset="0%" stop-color="#A8C8A0"/><stop offset="50%" stop-color="#8AB88A"/><stop offset="100%" stop-color="#7AA87A"/>
    </linearGradient>
  </defs>
  <rect width="400" height="400" fill="url(#bg05)"/>
  <ellipse cx="200" cy="340" rx="140" ry="18" fill="rgba(0,0,0,0.06)"/>
  <ellipse cx="200" cy="340" rx="90" ry="12" fill="rgba(0,0,0,0.08)"/>
  <g transform="translate(200,220)">
    <rect x="-50" y="-12" width="35" height="22" rx="10" fill="url(#mint)" transform="rotate(-15)"/>
    <rect x="-20" y="-8" width="35" height="22" rx="10" fill="#8AB88A" transform="rotate(5)"/>
    <rect x="10" y="-14" width="35" height="22" rx="10" fill="url(#mint)" transform="rotate(20)"/>
    <rect x="-40" y="10" width="35" height="22" rx="10" fill="#7AA87A" transform="rotate(-30)"/>
    <rect x="-5" y="12" width="35" height="22" rx="10" fill="url(#mint)" transform="rotate(-8)"/>
    <rect x="25" y="8" width="35" height="22" rx="10" fill="#8AB88A" transform="rotate(35)"/>
  </g>
  <g opacity="0.1">
    <circle cx="80" cy="80" r="50" fill="#C77D82"/>
    <circle cx="320" cy="320" r="45" fill="#84A98C"/>
  </g>
</svg>
